<mxfile host="app.diagrams.net" modified="2020-08-03T07:20:45.303Z" agent="5.0 (Windows NT 10.0; Win64; x64) AppleWebKit/537.36 (KHTML, like Gecko) Chrome/83.0.4103.116 Safari/537.36" etag="SGc8Z5baoDmB23x9pSv3" version="13.5.8" type="github">
  <diagram id="kkw9uX_qfVoYMWojb8-G" name="第 1 页">
    <mxGraphModel dx="1422" dy="839" grid="1" gridSize="10" guides="1" tooltips="1" connect="1" arrows="1" fold="1" page="1" pageScale="1" pageWidth="827" pageHeight="1169" math="0" shadow="0">
      <root>
        <mxCell id="0" />
        <mxCell id="1" parent="0" />
        <mxCell id="uRd98LVZPInpaxEcUH0i-28" value="ConditionEvaluator" style="swimlane;whiteSpace=wrap;swimlaneFillColor=#ffffff;glass=0;shadow=0;gradientColor=none;strokeColor=#FF196E;rounded=1;" vertex="1" parent="1">
          <mxGeometry x="749.9999999999999" y="130" width="300" height="570" as="geometry" />
        </mxCell>
        <mxCell id="uRd98LVZPInpaxEcUH0i-38" value="创建ConditionEvaluator" style="whiteSpace=wrap;html=1;rounded=1;" vertex="1" parent="uRd98LVZPInpaxEcUH0i-28">
          <mxGeometry x="10" y="70" width="280" height="30" as="geometry" />
        </mxCell>
        <mxCell id="uRd98LVZPInpaxEcUH0i-40" value="创建&amp;nbsp;ConditionContextImpl" style="whiteSpace=wrap;html=1;rounded=1;" vertex="1" parent="uRd98LVZPInpaxEcUH0i-28">
          <mxGeometry x="10" y="120" width="280" height="30" as="geometry" />
        </mxCell>
        <mxCell id="uRd98LVZPInpaxEcUH0i-41" value="" style="edgeStyle=orthogonalEdgeStyle;orthogonalLoop=1;jettySize=auto;html=1;" edge="1" parent="uRd98LVZPInpaxEcUH0i-28" source="uRd98LVZPInpaxEcUH0i-38" target="uRd98LVZPInpaxEcUH0i-40">
          <mxGeometry relative="1" as="geometry" />
        </mxCell>
        <mxCell id="uRd98LVZPInpaxEcUH0i-26" value="AnnotatedBeanDefinitionReader" style="swimlane;whiteSpace=wrap;swimlaneFillColor=#ffffff;glass=0;shadow=0;strokeColor=#FF196E;rounded=1;" vertex="1" parent="1">
          <mxGeometry x="370" y="130" width="340" height="570" as="geometry" />
        </mxCell>
        <mxCell id="uRd98LVZPInpaxEcUH0i-31" style="edgeStyle=orthogonalEdgeStyle;orthogonalLoop=1;jettySize=auto;html=1;" edge="1" parent="uRd98LVZPInpaxEcUH0i-26" source="uRd98LVZPInpaxEcUH0i-8" target="uRd98LVZPInpaxEcUH0i-10">
          <mxGeometry relative="1" as="geometry" />
        </mxCell>
        <mxCell id="uRd98LVZPInpaxEcUH0i-35" style="edgeStyle=orthogonalEdgeStyle;orthogonalLoop=1;jettySize=auto;html=1;entryX=1;entryY=0.5;entryDx=0;entryDy=0;" edge="1" parent="uRd98LVZPInpaxEcUH0i-26" source="uRd98LVZPInpaxEcUH0i-8" target="uRd98LVZPInpaxEcUH0i-32">
          <mxGeometry relative="1" as="geometry">
            <Array as="points">
              <mxPoint x="329.97" y="155" />
              <mxPoint x="329.97" y="255" />
            </Array>
          </mxGeometry>
        </mxCell>
        <mxCell id="uRd98LVZPInpaxEcUH0i-8" value="getOrCreateEnvironment" style="whiteSpace=wrap;html=1;rounded=1;" vertex="1" parent="uRd98LVZPInpaxEcUH0i-26">
          <mxGeometry x="29.97" y="140" width="280" height="30" as="geometry" />
        </mxCell>
        <mxCell id="uRd98LVZPInpaxEcUH0i-10" value="创建或者获取一个：StandardEnvironment" style="whiteSpace=wrap;html=1;rounded=1;" vertex="1" parent="uRd98LVZPInpaxEcUH0i-26">
          <mxGeometry x="29.97" y="190" width="280" height="30" as="geometry" />
        </mxCell>
        <mxCell id="uRd98LVZPInpaxEcUH0i-34" style="edgeStyle=orthogonalEdgeStyle;orthogonalLoop=1;jettySize=auto;html=1;entryX=0;entryY=0.5;entryDx=0;entryDy=0;" edge="1" parent="uRd98LVZPInpaxEcUH0i-26" source="uRd98LVZPInpaxEcUH0i-32" target="uRd98LVZPInpaxEcUH0i-8">
          <mxGeometry relative="1" as="geometry">
            <Array as="points">
              <mxPoint x="9.969999999999999" y="255" />
              <mxPoint x="9.969999999999999" y="155" />
            </Array>
          </mxGeometry>
        </mxCell>
        <mxCell id="uRd98LVZPInpaxEcUH0i-32" value="this" style="whiteSpace=wrap;html=1;rounded=1;" vertex="1" parent="uRd98LVZPInpaxEcUH0i-26">
          <mxGeometry x="29.97" y="240" width="280" height="30" as="geometry" />
        </mxCell>
        <mxCell id="uRd98LVZPInpaxEcUH0i-33" value="" style="edgeStyle=orthogonalEdgeStyle;orthogonalLoop=1;jettySize=auto;html=1;" edge="1" parent="uRd98LVZPInpaxEcUH0i-26" source="uRd98LVZPInpaxEcUH0i-10" target="uRd98LVZPInpaxEcUH0i-32">
          <mxGeometry relative="1" as="geometry" />
        </mxCell>
        <mxCell id="uRd98LVZPInpaxEcUH0i-36" value="创建ConditionEvaluator" style="whiteSpace=wrap;html=1;rounded=1;" vertex="1" parent="uRd98LVZPInpaxEcUH0i-26">
          <mxGeometry x="29.970000000000027" y="300" width="280" height="30" as="geometry" />
        </mxCell>
        <mxCell id="uRd98LVZPInpaxEcUH0i-37" value="" style="edgeStyle=orthogonalEdgeStyle;orthogonalLoop=1;jettySize=auto;html=1;" edge="1" parent="uRd98LVZPInpaxEcUH0i-26" source="uRd98LVZPInpaxEcUH0i-32" target="uRd98LVZPInpaxEcUH0i-36">
          <mxGeometry relative="1" as="geometry" />
        </mxCell>
        <mxCell id="uRd98LVZPInpaxEcUH0i-55" value="调用：registerAnnotationConfigProcessors" style="whiteSpace=wrap;html=1;rounded=1;" vertex="1" parent="uRd98LVZPInpaxEcUH0i-26">
          <mxGeometry x="30" y="370" width="280" height="30" as="geometry" />
        </mxCell>
        <mxCell id="uRd98LVZPInpaxEcUH0i-56" value="" style="edgeStyle=orthogonalEdgeStyle;orthogonalLoop=1;jettySize=auto;html=1;" edge="1" parent="uRd98LVZPInpaxEcUH0i-26" source="uRd98LVZPInpaxEcUH0i-36" target="uRd98LVZPInpaxEcUH0i-55">
          <mxGeometry relative="1" as="geometry" />
        </mxCell>
        <mxCell id="uRd98LVZPInpaxEcUH0i-17" value="AnnotationConfigApplicationContext" style="swimlane;whiteSpace=wrap;swimlaneFillColor=#ffffff;glass=0;shadow=0;strokeColor=#FF196E;rounded=1;" vertex="1" parent="1">
          <mxGeometry x="30" y="130" width="300" height="570" as="geometry" />
        </mxCell>
        <mxCell id="uRd98LVZPInpaxEcUH0i-19" value="" style="edgeStyle=elbowEdgeStyle;elbow=horizontal;verticalAlign=bottom;endArrow=open;endSize=8;strokeColor=#FF0000;endFill=1;" edge="1" parent="uRd98LVZPInpaxEcUH0i-17" target="uRd98LVZPInpaxEcUH0i-20">
          <mxGeometry x="100" y="40" as="geometry">
            <mxPoint x="115" y="110" as="targetPoint" />
            <mxPoint x="115" y="70" as="sourcePoint" />
          </mxGeometry>
        </mxCell>
        <mxCell id="uRd98LVZPInpaxEcUH0i-2" value="this()" style="whiteSpace=wrap;html=1;rounded=1;" vertex="1" parent="uRd98LVZPInpaxEcUH0i-17">
          <mxGeometry x="10" y="130" width="280" height="30" as="geometry" />
        </mxCell>
        <mxCell id="uRd98LVZPInpaxEcUH0i-3" value="" style="edgeStyle=orthogonalEdgeStyle;orthogonalLoop=1;jettySize=auto;html=1;" edge="1" parent="1" source="uRd98LVZPInpaxEcUH0i-1" target="uRd98LVZPInpaxEcUH0i-2">
          <mxGeometry relative="1" as="geometry" />
        </mxCell>
        <mxCell id="uRd98LVZPInpaxEcUH0i-1" value="AnnotationConfigApplicationContext" style="whiteSpace=wrap;html=1;rounded=1;" vertex="1" parent="1">
          <mxGeometry x="40" y="200" width="280" height="30" as="geometry" />
        </mxCell>
        <mxCell id="uRd98LVZPInpaxEcUH0i-5" value="" style="edgeStyle=orthogonalEdgeStyle;orthogonalLoop=1;jettySize=auto;html=1;entryX=0;entryY=0.5;entryDx=0;entryDy=0;" edge="1" parent="1" source="uRd98LVZPInpaxEcUH0i-2" target="uRd98LVZPInpaxEcUH0i-4">
          <mxGeometry relative="1" as="geometry" />
        </mxCell>
        <mxCell id="uRd98LVZPInpaxEcUH0i-7" value="" style="edgeStyle=orthogonalEdgeStyle;orthogonalLoop=1;jettySize=auto;html=1;" edge="1" parent="1" source="uRd98LVZPInpaxEcUH0i-4" target="uRd98LVZPInpaxEcUH0i-8">
          <mxGeometry relative="1" as="geometry">
            <mxPoint x="540" y="270" as="targetPoint" />
          </mxGeometry>
        </mxCell>
        <mxCell id="uRd98LVZPInpaxEcUH0i-4" value="AnnotatedBeanDefinitionReader" style="whiteSpace=wrap;html=1;rounded=1;" vertex="1" parent="1">
          <mxGeometry x="400" y="200" width="280" height="30" as="geometry" />
        </mxCell>
        <mxCell id="uRd98LVZPInpaxEcUH0i-39" value="" style="edgeStyle=orthogonalEdgeStyle;orthogonalLoop=1;jettySize=auto;html=1;entryX=0;entryY=0.5;entryDx=0;entryDy=0;" edge="1" parent="1" source="uRd98LVZPInpaxEcUH0i-36" target="uRd98LVZPInpaxEcUH0i-38">
          <mxGeometry relative="1" as="geometry" />
        </mxCell>
        <mxCell id="uRd98LVZPInpaxEcUH0i-44" style="edgeStyle=orthogonalEdgeStyle;orthogonalLoop=1;jettySize=auto;html=1;entryX=1;entryY=0.75;entryDx=0;entryDy=0;" edge="1" parent="1" source="uRd98LVZPInpaxEcUH0i-40" target="uRd98LVZPInpaxEcUH0i-36">
          <mxGeometry relative="1" as="geometry">
            <Array as="points">
              <mxPoint x="730" y="265" />
              <mxPoint x="730" y="453" />
            </Array>
          </mxGeometry>
        </mxCell>
        <mxCell id="uRd98LVZPInpaxEcUH0i-57" value="AnnotationConfigUtils" style="swimlane;whiteSpace=wrap;swimlaneFillColor=#ffffff;glass=0;shadow=0;gradientColor=none;strokeColor=#FF196E;rounded=1;" vertex="1" parent="1">
          <mxGeometry x="1100" y="130" width="300" height="570" as="geometry" />
        </mxCell>
        <mxCell id="uRd98LVZPInpaxEcUH0i-58" value="registerAnnotationConfigProcessors" style="whiteSpace=wrap;html=1;rounded=1;" vertex="1" parent="uRd98LVZPInpaxEcUH0i-57">
          <mxGeometry x="10" y="70" width="280" height="30" as="geometry" />
        </mxCell>
        <mxCell id="uRd98LVZPInpaxEcUH0i-59" value="创建&amp;nbsp;ConditionContextImpl" style="whiteSpace=wrap;html=1;rounded=1;" vertex="1" parent="uRd98LVZPInpaxEcUH0i-57">
          <mxGeometry x="10" y="120" width="280" height="30" as="geometry" />
        </mxCell>
        <mxCell id="uRd98LVZPInpaxEcUH0i-60" value="" style="edgeStyle=orthogonalEdgeStyle;orthogonalLoop=1;jettySize=auto;html=1;" edge="1" parent="uRd98LVZPInpaxEcUH0i-57" source="uRd98LVZPInpaxEcUH0i-58" target="uRd98LVZPInpaxEcUH0i-59">
          <mxGeometry relative="1" as="geometry" />
        </mxCell>
        <mxCell id="uRd98LVZPInpaxEcUH0i-62" value="获取Bean工厂附近：unwrapDefaultListableBeanFactory" style="whiteSpace=wrap;html=1;rounded=1;" vertex="1" parent="uRd98LVZPInpaxEcUH0i-57">
          <mxGeometry x="10" y="170" width="280" height="30" as="geometry" />
        </mxCell>
        <mxCell id="uRd98LVZPInpaxEcUH0i-63" value="" style="edgeStyle=orthogonalEdgeStyle;orthogonalLoop=1;jettySize=auto;html=1;" edge="1" parent="uRd98LVZPInpaxEcUH0i-57" source="uRd98LVZPInpaxEcUH0i-59" target="uRd98LVZPInpaxEcUH0i-62">
          <mxGeometry relative="1" as="geometry" />
        </mxCell>
        <mxCell id="uRd98LVZPInpaxEcUH0i-64" value="注几个spring默认的Bean" style="whiteSpace=wrap;html=1;rounded=1;" vertex="1" parent="uRd98LVZPInpaxEcUH0i-57">
          <mxGeometry x="10" y="230" width="280" height="30" as="geometry" />
        </mxCell>
        <mxCell id="uRd98LVZPInpaxEcUH0i-65" value="" style="edgeStyle=orthogonalEdgeStyle;orthogonalLoop=1;jettySize=auto;html=1;" edge="1" parent="uRd98LVZPInpaxEcUH0i-57" source="uRd98LVZPInpaxEcUH0i-62" target="uRd98LVZPInpaxEcUH0i-64">
          <mxGeometry relative="1" as="geometry" />
        </mxCell>
        <mxCell id="uRd98LVZPInpaxEcUH0i-66" value="ConfigurationClassPostProcessor" style="whiteSpace=wrap;html=1;rounded=1;" vertex="1" parent="uRd98LVZPInpaxEcUH0i-57">
          <mxGeometry x="10" y="280" width="280" height="30" as="geometry" />
        </mxCell>
        <mxCell id="uRd98LVZPInpaxEcUH0i-67" value="" style="edgeStyle=orthogonalEdgeStyle;orthogonalLoop=1;jettySize=auto;html=1;" edge="1" parent="uRd98LVZPInpaxEcUH0i-57" source="uRd98LVZPInpaxEcUH0i-64" target="uRd98LVZPInpaxEcUH0i-66">
          <mxGeometry relative="1" as="geometry" />
        </mxCell>
        <mxCell id="uRd98LVZPInpaxEcUH0i-68" value="....." style="whiteSpace=wrap;html=1;rounded=1;" vertex="1" parent="uRd98LVZPInpaxEcUH0i-57">
          <mxGeometry x="10" y="330" width="280" height="30" as="geometry" />
        </mxCell>
        <mxCell id="uRd98LVZPInpaxEcUH0i-69" value="" style="edgeStyle=orthogonalEdgeStyle;orthogonalLoop=1;jettySize=auto;html=1;" edge="1" parent="uRd98LVZPInpaxEcUH0i-57" source="uRd98LVZPInpaxEcUH0i-66" target="uRd98LVZPInpaxEcUH0i-68">
          <mxGeometry relative="1" as="geometry" />
        </mxCell>
        <mxCell id="uRd98LVZPInpaxEcUH0i-70" value="DefaultEventListenerFactory" style="whiteSpace=wrap;html=1;rounded=1;" vertex="1" parent="uRd98LVZPInpaxEcUH0i-57">
          <mxGeometry x="10" y="380" width="280" height="30" as="geometry" />
        </mxCell>
        <mxCell id="uRd98LVZPInpaxEcUH0i-71" value="" style="edgeStyle=orthogonalEdgeStyle;orthogonalLoop=1;jettySize=auto;html=1;" edge="1" parent="uRd98LVZPInpaxEcUH0i-57" source="uRd98LVZPInpaxEcUH0i-68" target="uRd98LVZPInpaxEcUH0i-70">
          <mxGeometry relative="1" as="geometry" />
        </mxCell>
        <mxCell id="uRd98LVZPInpaxEcUH0i-61" style="edgeStyle=orthogonalEdgeStyle;orthogonalLoop=1;jettySize=auto;html=1;entryX=0;entryY=0.5;entryDx=0;entryDy=0;" edge="1" parent="1" source="uRd98LVZPInpaxEcUH0i-55" target="uRd98LVZPInpaxEcUH0i-58">
          <mxGeometry relative="1" as="geometry">
            <Array as="points">
              <mxPoint x="1070" y="515" />
              <mxPoint x="1070" y="215" />
            </Array>
          </mxGeometry>
        </mxCell>
      </root>
    </mxGraphModel>
  </diagram>
</mxfile>
